<svg xmlns="http://www.w3.org/2000/svg" viewBox="0 0 499.54 258.73"><g id="Capa_2" data-name="Capa 2"><g id="Capa_2_copia_2" data-name="Capa 2 copia 2"><path d="M499.54,95.58,460.91,68.41l-9.67,2.73,3.12,13.2-6.19,5.53,26.48,18.63L453,177.05l13.66,56.79H376.34V98.07l-53.16-39L363.7,30.47,409,62.33l-1.17-9.59,14.24-4.52-1.16-7.94L363.66,0,301.88,43.69,240.07,0,103.82,96.34l21.5,86.26-21.5,76.08,272.52.05v0l123.2,0-21.68-72.65ZM351.45,233.82l-216.31,0,15.07-52.59-21.5-72L240.07,30.48,280.42,59l-.13.1,14.47,10,56.69,41.55Z"/><path d="M183.93,19.62c-2.72-4.08-2.75-5.56-5.44-13.92-2.32,0-4.19-.49-5.81.39V233.82h24.88V9.7a31.76,31.76,0,0,0-5.47-7.76C189.37,7.38,189.28,9.55,183.93,19.62Z"/><path d="M8.79,258.73l44.62-16.85A11.86,11.86,0,0,1,50,237c7.8-7.8,9.22-6.39,12.07-10.38-14.19,0-13.37-.76-19.42-1.39A31.86,31.86,0,0,1,48,217.32L0,235.44Z"/></g></g></svg>