<svg xmlns="http://www.w3.org/2000/svg" viewBox="0 0 1020.41 203.42"><g id="Capa_2_copia" data-name="Capa 2 copia"><path d="M788.09,613H697.51l-200.39,0V493.57l100.19-70.84,45.44,32.13,45.43-32.12L788.09,493Zm-90.58-18.31h72.28V502.51l-81.58-57.38-29.79,21.06,39.09,28.65Zm-182.09,0,163.79,0V504.12l-41.69-30.55-10.64-7.38.1-.07-29.67-21-81.89,57.91Z" transform="translate(-497.12 -410.45)"/><rect x="50.63" width="18.3" height="202.52"/></g><g id="Capa_3" data-name="Capa 3"><path d="M890,612.52l-24.78-45h-7v45h-29V493.39H878q14.09,0,24,4.92a34,34,0,0,1,14.85,13.49,37.68,37.68,0,0,1,4.92,19.09,35.46,35.46,0,0,1-6.7,21.22q-6.7,9.33-19.77,13.23l27.49,47.18ZM858.29,547h18q8,0,12-3.91t4-11q0-6.78-4-10.69t-12-3.9h-18Z" transform="translate(-497.12 -410.45)"/><path d="M1028.66,572.13H963q.69,8.82,5.69,13.49a17.36,17.36,0,0,0,12.3,4.67q10.86,0,15.1-9.17H1027a42.35,42.35,0,0,1-8.57,16.8,42.83,42.83,0,0,1-15.53,11.71A49.84,49.84,0,0,1,982,613.87a50.62,50.62,0,0,1-24.77-5.94,42.11,42.11,0,0,1-17-17q-6.12-11-6.11-25.8t6-25.79a41.7,41.7,0,0,1,16.89-17,55,55,0,0,1,49.38-.17,41.49,41.49,0,0,1,16.71,16.46q6,10.69,6,24.95A76.17,76.17,0,0,1,1028.66,572.13ZM999.47,556q0-7.47-5.09-11.88a18.77,18.77,0,0,0-12.73-4.41,18.36,18.36,0,0,0-12.3,4.24q-5,4.24-6.2,12Z" transform="translate(-497.12 -410.45)"/><path d="M1044.18,539.38a41.16,41.16,0,0,1,15-17,39.17,39.17,0,0,1,21.21-5.94,36.48,36.48,0,0,1,17.56,4.07,30.06,30.06,0,0,1,11.63,10.69v-13.4h29v94.69h-29V599.11a31.3,31.3,0,0,1-11.8,10.69,36.37,36.37,0,0,1-17.56,4.07,38.45,38.45,0,0,1-21-6,41.59,41.59,0,0,1-15-17.14q-5.52-11.12-5.51-25.71T1044.18,539.38Zm59.39,8.65a20.4,20.4,0,0,0-29.35-.08q-6,6.19-6,17t6,17.23a20.2,20.2,0,0,0,29.35.08q6-6.27,6-17.14T1103.57,548Z" transform="translate(-497.12 -410.45)"/><path d="M1188.67,486.94V612.52h-29V486.94Z" transform="translate(-497.12 -410.45)"/><path d="M1211.83,503.49a14.58,14.58,0,0,1-4.83-11.12,14.77,14.77,0,0,1,4.83-11.28q4.85-4.5,12.48-4.5a17.35,17.35,0,0,1,12.3,4.5,14.78,14.78,0,0,1,4.84,11.28,14.59,14.59,0,0,1-4.84,11.12,17.35,17.35,0,0,1-12.3,4.5Q1216.68,508,1211.83,503.49Zm26.9,14.34v94.69h-29V517.83Z" transform="translate(-497.12 -410.45)"/><path d="M1276.23,609.63A37.56,37.56,0,0,1,1261,598a30.59,30.59,0,0,1-6.28-16.55h28.68a11,11,0,0,0,4.58,8,16.19,16.19,0,0,0,10,3c3.62,0,6.42-.7,8.4-2.12a6.48,6.48,0,0,0,3-5.51q0-4.08-4.24-6a85.55,85.55,0,0,0-13.75-4.32,130.43,130.43,0,0,1-17-5,29.16,29.16,0,0,1-11.71-8.32q-4.94-5.67-4.92-15.35a26.06,26.06,0,0,1,4.49-14.85,30.33,30.33,0,0,1,13.24-10.61q8.73-3.9,20.79-3.9,17.81,0,28.08,8.83t11.79,23.41h-26.81a11.53,11.53,0,0,0-4.32-7.8q-3.66-2.89-9.59-2.89-5.1,0-7.81,2a6.25,6.25,0,0,0-2.71,5.35q0,4.06,4.32,6.11a70.37,70.37,0,0,0,13.49,4.07,145.75,145.75,0,0,1,17.14,5.35,29.6,29.6,0,0,1,11.63,8.48q5,5.85,5.17,15.7a24.89,24.89,0,0,1-4.66,14.84,30.89,30.89,0,0,1-13.41,10.27,51.28,51.28,0,0,1-20.28,3.73A54.39,54.39,0,0,1,1276.23,609.63Z" transform="translate(-497.12 -410.45)"/><path d="M1407.23,587.91v24.61h-14.76q-15.78,0-24.6-7.72T1359,579.6V541.93H1347.5v-24.1H1359V494.75h29v23.08h19v24.1h-19v38q0,4.24,2,6.1t6.78,1.87Z" transform="translate(-497.12 -410.45)"/><path d="M1423.1,539.38a41.09,41.09,0,0,1,15-17,39.17,39.17,0,0,1,21.21-5.94,36.48,36.48,0,0,1,17.56,4.07,30.13,30.13,0,0,1,11.63,10.69v-13.4h29v94.69h-29V599.11a31.37,31.37,0,0,1-11.8,10.69,36.37,36.37,0,0,1-17.56,4.07,38.43,38.43,0,0,1-21-6,41.52,41.52,0,0,1-15-17.14q-5.52-11.12-5.52-25.71T1423.1,539.38Zm59.39,8.65a20.41,20.41,0,0,0-29.36-.08q-6,6.19-6,17t6,17.23a20.21,20.21,0,0,0,29.36.08q6-6.27,6-17.14T1482.49,548Z" transform="translate(-497.12 -410.45)"/></g></svg>